<svg width="201" height="340" viewBox="0 0 201 340" fill="none" xmlns="http://www.w3.org/2000/svg">
<g filter="url(#filter0_d_65_40)">
<path d="M107.307 331C93.292 331 80.8346 328.816 69.9343 324.447C59.0341 320.078 50.4696 312.745 44.2409 302.447C38.3236 291.837 35.365 277.794 35.365 260.319V98.0639H12.7478C8.4688 98.0639 5 94.595 5 90.3161V90.3161C5 86.3688 7.97439 83.0763 11.8761 82.4787C25.3398 80.4168 35.8166 76.9735 43.3066 72.1489C52.3382 66.5319 59.0341 58.4184 63.3942 47.8085C67.2294 38.8417 70.54 28.0869 73.3257 15.5444C74.4443 10.5079 78.5196 6.62227 83.6329 5.93562L117.285 1.41657C119.293 1.14691 121.333 1.56874 123.069 2.61267V2.61267C125.753 4.22598 127.394 7.12795 127.394 10.2591V80.5745H177.978C182.808 80.5745 186.723 84.4896 186.723 89.3192V89.3192C186.723 94.1487 182.807 98.0639 177.978 98.0639H127.394V246.745C127.394 259.539 127.394 306 154.489 302.5C154.489 302.5 145.219 293.223 141.771 285.457C140.712 283.07 142.97 281.112 145.552 281.504C147.141 281.746 148.896 281.936 150.489 281.936C157.652 281.936 164.504 280.376 171.044 277.255C175.561 275.1 179.931 272.2 184.151 268.555C187.206 265.917 191.937 266.171 194.351 269.406V269.406C195.949 271.549 196.082 274.458 194.627 276.701C184.038 293.025 172.372 305.976 159.628 315.553C145.925 325.851 128.484 331 107.307 331Z" fill="#D1A17A"/>
<path d="M43.8042 302.69L43.8085 302.698L43.813 302.706C50.0964 313.094 58.7446 320.501 69.7483 324.911C80.7179 329.308 93.2403 331.5 107.307 331.5C128.567 331.5 146.12 326.33 159.928 315.953C172.728 306.334 184.433 293.336 195.047 276.973C196.619 274.55 196.471 271.413 194.751 269.107C192.144 265.613 187.073 265.372 183.824 268.177C179.634 271.795 175.302 274.67 170.828 276.804C164.355 279.893 157.577 281.436 150.489 281.436C148.932 281.436 147.204 281.25 145.627 281.01C144.198 280.793 142.825 281.22 141.946 282.081C141.047 282.961 140.697 284.269 141.314 285.66C143.068 289.609 146.285 293.914 149.039 297.211C150.421 298.865 151.693 300.274 152.621 301.27C152.926 301.597 153.193 301.88 153.415 302.112C147.313 302.627 142.704 300.47 139.19 296.722C135.461 292.746 132.949 286.959 131.264 280.605C127.897 267.899 127.894 253.148 127.894 246.745V98.5639H177.978C183.084 98.5639 187.223 94.4249 187.223 89.3192C187.223 84.2135 183.084 80.0745 177.978 80.0745H127.894V10.2591C127.894 6.95247 126.161 3.88788 123.327 2.18415C121.493 1.08172 119.339 0.636247 117.218 0.921014L83.5664 5.44007C78.2367 6.15577 73.9997 10.2034 72.8376 15.436C70.0566 27.9572 66.7544 38.6808 62.9344 47.6119L62.9344 47.6119L62.9317 47.6185C58.6082 58.1394 51.9779 66.1672 43.0425 71.7244L43.0425 71.7243L43.0358 71.7286C35.6278 76.5004 25.2278 79.9281 11.8004 81.9845C7.66785 82.6174 4.5 86.1088 4.5 90.3161C4.5 94.8712 8.19266 98.5639 12.7478 98.5639H34.865V260.319C34.865 277.845 37.8311 291.98 43.8042 302.69Z" stroke="#231B16"/>
</g>
<defs>
<filter id="filter0_d_65_40" x="0" y="0.337402" width="200.639" height="339.663" filterUnits="userSpaceOnUse" color-interpolation-filters="sRGB">
<feFlood flood-opacity="0" result="BackgroundImageFix"/>
<feColorMatrix in="SourceAlpha" type="matrix" values="0 0 0 0 0 0 0 0 0 0 0 0 0 0 0 0 0 0 127 0" result="hardAlpha"/>
<feOffset dy="4"/>
<feGaussianBlur stdDeviation="2"/>
<feComposite in2="hardAlpha" operator="out"/>
<feColorMatrix type="matrix" values="0 0 0 0 0 0 0 0 0 0 0 0 0 0 0 0 0 0 0.25 0"/>
<feBlend mode="normal" in2="BackgroundImageFix" result="effect1_dropShadow_65_40"/>
<feBlend mode="normal" in="SourceGraphic" in2="effect1_dropShadow_65_40" result="shape"/>
</filter>
</defs>
</svg>
