<svg width="561" height="249" viewBox="0 0 561 249" fill="none" xmlns="http://www.w3.org/2000/svg">
<g filter="url(#filter0_d_165_6)">
<path d="M446.555 236C440.152 236 434.366 232.183 431.846 226.297L373.437 89.8716C371.375 84.6026 369.656 80.8227 368.281 78.5318C366.906 76.0119 365.302 74.1792 363.469 73.0338C361.635 71.8884 359.115 70.972 355.906 70.2848L352.481 69.3915C349.861 68.7083 348.065 66.3007 348.156 63.5949V63.5949C348.261 60.475 350.82 58 353.942 58H449.828C452.823 58 455.25 60.4275 455.25 63.4219V63.4219C455.25 66.1626 453.205 68.4723 450.484 68.804L441.156 69.9411C436.115 70.3993 432.906 72.0029 431.531 74.7519C430.385 77.2719 430.958 81.8536 433.25 88.4971L473.118 196.685C473.226 196.976 473.503 197.17 473.813 197.17V197.17C474.123 197.17 474.4 196.977 474.507 196.687L514.203 89.8716C516.495 83.6863 516.953 78.99 515.578 75.7828C514.432 72.5756 510.995 70.6284 505.266 69.9411L496.445 68.839C493.653 68.4901 491.588 66.0698 491.683 63.2576V63.2576C491.781 60.3258 494.186 58 497.12 58H551.492C554.534 58 557 60.4661 557 63.5083V63.5083C557 66.2222 555.023 68.5317 552.342 68.9506L546 69.9411C540.958 70.8575 537.177 72.4611 534.656 74.7519C532.365 77.0428 529.958 81.8536 527.438 89.1844L477.652 225.489C475.346 231.801 469.342 236 462.623 236H446.555Z" fill="#D1A17A"/>
</g>
<g filter="url(#filter1_d_165_6)">
<path d="M245.613 241C227.091 241 210.855 237.557 196.906 230.67C182.956 223.554 172.094 213.339 164.319 200.026C156.773 186.482 153 170.184 153 151.132C153 130.013 157.002 112.223 165.005 97.7619C173.238 83.0708 184.672 71.9377 199.307 64.3626C214.171 56.7875 231.55 53 251.445 53C269.51 53 285.289 56.4432 298.78 63.3297C312.501 69.9866 323.134 79.9719 330.681 93.2857C338.227 106.6 342 123.012 342 142.524C342 162.724 337.998 180.285 329.995 195.205C322.22 209.896 311.129 221.259 296.722 229.293C282.316 237.098 265.28 241 245.613 241ZM251.102 231.56C258.648 231.56 264.822 229.035 269.624 223.985C274.655 218.705 278.314 210.585 280.601 198.189C282.888 185.794 284.031 171.562 284.031 149.755C284.031 132.309 283.116 120.602 281.287 108.895C279.686 97.188 277.171 86.4567 273.74 79.5702C270.539 72.6838 266.537 69.9005 261.735 66.9164C257.162 63.9322 251.902 62.4402 245.956 62.4402C238.182 62.4402 231.664 64.9652 226.405 70.0153C221.145 75.0653 217.258 82.8413 214.742 94.7778C212.227 106.485 210.969 119.913 210.969 140.802C210.969 164.675 212.57 180.629 215.771 194.402C219.201 208.175 223.889 217.213 229.835 222.952C236.009 228.69 243.098 231.56 251.102 231.56Z" fill="#D1A17A"/>
</g>
<g filter="url(#filter2_d_165_6)">
<path d="M77.5328 236C67.4599 236 58.5061 234.438 50.6715 231.313C42.837 228.189 36.6813 222.945 32.2044 215.58C27.9513 207.992 25.8248 197.95 25.8248 185.452V69.4154H9.53939C6.48007 69.4154 4 66.9353 4 63.876V63.876C4 61.0527 6.12825 58.6978 8.91941 58.2731C18.6074 56.7989 26.1452 54.3353 31.5328 50.8823C38.0243 46.8653 42.837 41.0629 45.9708 33.4752C48.479 27.6403 50.675 20.7468 52.5587 12.7948C53.7476 7.77572 57.8106 3.89138 62.9232 3.20826L84.7174 0.296219C86.1528 0.104418 87.6109 0.404742 88.8538 1.14819V1.14819C90.7872 2.30474 91.9708 4.39201 91.9708 6.64495V56.9078H128.359C131.813 56.9078 134.613 59.7077 134.613 63.1616V63.1616C134.613 66.6154 131.813 69.4154 128.359 69.4154H91.9708V175.745C91.9708 184.895 91.6193 224.915 111.094 222.412C111.094 222.412 105.136 212.094 102.557 204.875C101.68 202.417 103.858 200.515 106.454 200.789C107.167 200.864 107.89 200.912 108.57 200.912C113.719 200.912 118.643 199.796 123.344 197.564C126.598 196.02 129.744 193.94 132.783 191.326C134.972 189.444 138.352 189.626 140.084 191.935V191.935C141.239 193.476 141.335 195.573 140.283 197.186C132.675 208.852 124.294 218.108 115.139 224.953C105.29 232.318 92.7543 236 77.5328 236Z" fill="#D1A17A"/>
</g>
<defs>
<filter id="filter0_d_165_6" x="344.152" y="58" width="216.848" height="186" filterUnits="userSpaceOnUse" color-interpolation-filters="sRGB">
<feFlood flood-opacity="0" result="BackgroundImageFix"/>
<feColorMatrix in="SourceAlpha" type="matrix" values="0 0 0 0 0 0 0 0 0 0 0 0 0 0 0 0 0 0 127 0" result="hardAlpha"/>
<feOffset dy="4"/>
<feGaussianBlur stdDeviation="2"/>
<feComposite in2="hardAlpha" operator="out"/>
<feColorMatrix type="matrix" values="0 0 0 0 0 0 0 0 0 0 0 0 0 0 0 0 0 0 0.25 0"/>
<feBlend mode="normal" in2="BackgroundImageFix" result="effect1_dropShadow_165_6"/>
<feBlend mode="normal" in="SourceGraphic" in2="effect1_dropShadow_165_6" result="shape"/>
</filter>
<filter id="filter1_d_165_6" x="149" y="53" width="197" height="196" filterUnits="userSpaceOnUse" color-interpolation-filters="sRGB">
<feFlood flood-opacity="0" result="BackgroundImageFix"/>
<feColorMatrix in="SourceAlpha" type="matrix" values="0 0 0 0 0 0 0 0 0 0 0 0 0 0 0 0 0 0 127 0" result="hardAlpha"/>
<feOffset dy="4"/>
<feGaussianBlur stdDeviation="2"/>
<feComposite in2="hardAlpha" operator="out"/>
<feColorMatrix type="matrix" values="0 0 0 0 0 0 0 0 0 0 0 0 0 0 0 0 0 0 0.25 0"/>
<feBlend mode="normal" in2="BackgroundImageFix" result="effect1_dropShadow_165_6"/>
<feBlend mode="normal" in="SourceGraphic" in2="effect1_dropShadow_165_6" result="shape"/>
</filter>
<filter id="filter2_d_165_6" x="0" y="0.239746" width="145.015" height="243.76" filterUnits="userSpaceOnUse" color-interpolation-filters="sRGB">
<feFlood flood-opacity="0" result="BackgroundImageFix"/>
<feColorMatrix in="SourceAlpha" type="matrix" values="0 0 0 0 0 0 0 0 0 0 0 0 0 0 0 0 0 0 127 0" result="hardAlpha"/>
<feOffset dy="4"/>
<feGaussianBlur stdDeviation="2"/>
<feComposite in2="hardAlpha" operator="out"/>
<feColorMatrix type="matrix" values="0 0 0 0 0 0 0 0 0 0 0 0 0 0 0 0 0 0 0.25 0"/>
<feBlend mode="normal" in2="BackgroundImageFix" result="effect1_dropShadow_165_6"/>
<feBlend mode="normal" in="SourceGraphic" in2="effect1_dropShadow_165_6" result="shape"/>
</filter>
</defs>
</svg>
